<svg width="44" height="45" viewBox="0 0 44 45" fill="none" xmlns="http://www.w3.org/2000/svg">
    <g filter="url(#filter0_dii_859_6287)">
    <path d="M10 1.8999H34C38.1421 1.8999 41.5 5.25777 41.5 9.3999V33.3999C41.5 37.542 38.1421 40.8999 34 40.8999H10C5.85786 40.8999 2.5 37.542 2.5 33.3999V9.3999C2.5 5.25777 5.85786 1.8999 10 1.8999Z" stroke="#373A41"/>
    <path d="M19.5 26.3999V16.6961C19.5 16.2948 19.5 16.0941 19.573 15.9314C19.6374 15.788 19.741 15.6656 19.8719 15.5786C20.0204 15.4798 20.2183 15.4468 20.6141 15.3809L27.9475 14.1586C28.4816 14.0696 28.7487 14.0251 28.9568 14.1024C29.1395 14.1703 29.2926 14.3 29.3895 14.469C29.5 14.6616 29.5 14.9323 29.5 15.4738V24.7332M19.5 26.3999C19.5 27.7806 18.3807 28.8999 17 28.8999C15.6193 28.8999 14.5 27.7806 14.5 26.3999C14.5 25.0192 15.6193 23.8999 17 23.8999C18.3807 23.8999 19.5 25.0192 19.5 26.3999ZM29.5 24.7332C29.5 26.1139 28.3807 27.2332 27 27.2332C25.6193 27.2332 24.5 26.1139 24.5 24.7332C24.5 23.3525 25.6193 22.2332 27 22.2332C28.3807 22.2332 29.5 23.3525 29.5 24.7332Z" stroke="#CECFD2" stroke-width="1.66667" stroke-linecap="round" stroke-linejoin="round"/>
    </g>
    <defs>
    <filter id="filter0_dii_859_6287" x="0" y="0.399902" width="44" height="44" filterUnits="userSpaceOnUse" color-interpolation-filters="sRGB">
    <feFlood flood-opacity="0" result="BackgroundImageFix"/>
    <feColorMatrix in="SourceAlpha" type="matrix" values="0 0 0 0 0 0 0 0 0 0 0 0 0 0 0 0 0 0 127 0" result="hardAlpha"/>
    <feOffset dy="1"/>
    <feGaussianBlur stdDeviation="1"/>
    <feColorMatrix type="matrix" values="0 0 0 0 0.0392157 0 0 0 0 0.0496732 0 0 0 0 0.0705882 0 0 0 0.05 0"/>
    <feBlend mode="normal" in2="BackgroundImageFix" result="effect1_dropShadow_859_6287"/>
    <feBlend mode="normal" in="SourceGraphic" in2="effect1_dropShadow_859_6287" result="shape"/>
    <feColorMatrix in="SourceAlpha" type="matrix" values="0 0 0 0 0 0 0 0 0 0 0 0 0 0 0 0 0 0 127 0" result="hardAlpha"/>
    <feOffset dy="-2"/>
    <feComposite in2="hardAlpha" operator="arithmetic" k2="-1" k3="1"/>
    <feColorMatrix type="matrix" values="0 0 0 0 0.0392157 0 0 0 0 0.0496732 0 0 0 0 0.0705882 0 0 0 0.05 0"/>
    <feBlend mode="normal" in2="shape" result="effect2_innerShadow_859_6287"/>
    <feColorMatrix in="SourceAlpha" type="matrix" values="0 0 0 0 0 0 0 0 0 0 0 0 0 0 0 0 0 0 127 0" result="hardAlpha"/>
    <feMorphology radius="1" operator="erode" in="SourceAlpha" result="effect3_innerShadow_859_6287"/>
    <feOffset/>
    <feComposite in2="hardAlpha" operator="arithmetic" k2="-1" k3="1"/>
    <feColorMatrix type="matrix" values="0 0 0 0 0.0392157 0 0 0 0 0.0496732 0 0 0 0 0.0705882 0 0 0 0.18 0"/>
    <feBlend mode="normal" in2="effect2_innerShadow_859_6287" result="effect3_innerShadow_859_6287"/>
    </filter>
    </defs>
    </svg>
    