<svg width="44" height="45" viewBox="0 0 44 45" fill="none" xmlns="http://www.w3.org/2000/svg">
    <g filter="url(#filter0_dii_861_6712)">
    <path d="M10 1.8999H34C38.1421 1.8999 41.5 5.25777 41.5 9.3999V33.3999C41.5 37.542 38.1421 40.8999 34 40.8999H10C5.85786 40.8999 2.5 37.542 2.5 33.3999V9.3999C2.5 5.25777 5.85786 1.8999 10 1.8999Z" stroke="#373A41"/>
    <path d="M16.9993 20.1666V23.5M26.9993 18.5V21.8333M26.166 14.3333C28.2066 14.3333 29.3103 14.6456 29.8594 14.8878C29.9326 14.9201 29.9691 14.9362 30.0747 15.037C30.1379 15.0973 30.2534 15.2745 30.2831 15.3567C30.3327 15.4939 30.3327 15.5689 30.3327 15.7189V24.6759C30.3327 25.4332 30.3327 25.8119 30.2191 26.0065C30.1036 26.2045 29.9922 26.2965 29.776 26.3726C29.5634 26.4474 29.1343 26.365 28.2762 26.2001C27.6755 26.0847 26.9631 26 26.166 26C23.666 26 21.166 27.6666 17.8327 27.6666C15.7921 27.6666 14.6884 27.3543 14.1393 27.1121C14.0661 27.0798 14.0296 27.0637 13.924 26.963C13.8608 26.9026 13.7453 26.7255 13.7156 26.6432C13.666 26.506 13.666 26.431 13.666 26.281L13.666 17.324C13.666 16.5667 13.666 16.1881 13.7796 15.9934C13.8951 15.7954 14.0065 15.7034 14.2227 15.6273C14.4353 15.5525 14.8644 15.635 15.7225 15.7999C16.3232 15.9153 17.0356 16 17.8327 16C20.3327 16 22.8327 14.3333 26.166 14.3333ZM24.0827 21C24.0827 22.1506 23.1499 23.0833 21.9993 23.0833C20.8488 23.0833 19.916 22.1506 19.916 21C19.916 19.8494 20.8488 18.9166 21.9993 18.9166C23.1499 18.9166 24.0827 19.8494 24.0827 21Z" stroke="#CECFD2" stroke-width="1.66667" stroke-linecap="round" stroke-linejoin="round"/>
    </g>
    <defs>
    <filter id="filter0_dii_861_6712" x="0" y="0.399902" width="44" height="44" filterUnits="userSpaceOnUse" color-interpolation-filters="sRGB">
    <feFlood flood-opacity="0" result="BackgroundImageFix"/>
    <feColorMatrix in="SourceAlpha" type="matrix" values="0 0 0 0 0 0 0 0 0 0 0 0 0 0 0 0 0 0 127 0" result="hardAlpha"/>
    <feOffset dy="1"/>
    <feGaussianBlur stdDeviation="1"/>
    <feColorMatrix type="matrix" values="0 0 0 0 0.0392157 0 0 0 0 0.0496732 0 0 0 0 0.0705882 0 0 0 0.05 0"/>
    <feBlend mode="normal" in2="BackgroundImageFix" result="effect1_dropShadow_861_6712"/>
    <feBlend mode="normal" in="SourceGraphic" in2="effect1_dropShadow_861_6712" result="shape"/>
    <feColorMatrix in="SourceAlpha" type="matrix" values="0 0 0 0 0 0 0 0 0 0 0 0 0 0 0 0 0 0 127 0" result="hardAlpha"/>
    <feOffset dy="-2"/>
    <feComposite in2="hardAlpha" operator="arithmetic" k2="-1" k3="1"/>
    <feColorMatrix type="matrix" values="0 0 0 0 0.0392157 0 0 0 0 0.0496732 0 0 0 0 0.0705882 0 0 0 0.05 0"/>
    <feBlend mode="normal" in2="shape" result="effect2_innerShadow_861_6712"/>
    <feColorMatrix in="SourceAlpha" type="matrix" values="0 0 0 0 0 0 0 0 0 0 0 0 0 0 0 0 0 0 127 0" result="hardAlpha"/>
    <feMorphology radius="1" operator="erode" in="SourceAlpha" result="effect3_innerShadow_861_6712"/>
    <feOffset/>
    <feComposite in2="hardAlpha" operator="arithmetic" k2="-1" k3="1"/>
    <feColorMatrix type="matrix" values="0 0 0 0 0.0392157 0 0 0 0 0.0496732 0 0 0 0 0.0705882 0 0 0 0.18 0"/>
    <feBlend mode="normal" in2="effect2_innerShadow_861_6712" result="effect3_innerShadow_861_6712"/>
    </filter>
    </defs>
    </svg>
    