<svg width="57" height="56" viewBox="0 0 57 56" fill="none" xmlns="http://www.w3.org/2000/svg">
    <g filter="url(#filter0_dii_861_13027)">
    <path d="M2.5 9C2.5 4.58172 6.08172 1 10.5 1H46.5C50.9183 1 54.5 4.58172 54.5 9V45C54.5 49.4183 50.9183 53 46.5 53H10.5C6.08172 53 2.5 49.4183 2.5 45V9Z" fill="#0C0E12"/>
    <path d="M37.3418 32.1447C37.0091 32.9133 36.6153 33.6208 36.159 34.2713C35.5371 35.158 35.0278 35.7719 34.6354 36.1127C34.027 36.6722 33.3752 36.9587 32.6772 36.975C32.1761 36.975 31.5718 36.8324 30.8683 36.5432C30.1626 36.2553 29.514 36.1127 28.921 36.1127C28.2991 36.1127 27.632 36.2553 26.9185 36.5432C26.204 36.8324 25.6283 36.9832 25.1882 36.9981C24.5188 37.0266 23.8517 36.7319 23.1857 36.1127C22.7607 35.742 22.229 35.1064 21.5921 34.2061C20.9088 33.2446 20.347 32.1297 19.9069 30.8587C19.4355 29.4857 19.1992 28.1563 19.1992 26.8692C19.1992 25.3948 19.5178 24.1232 20.1559 23.0576C20.6574 22.2017 21.3246 21.5265 22.1596 21.0308C22.9946 20.5351 23.8969 20.2826 24.8685 20.2664C25.4002 20.2664 26.0974 20.4309 26.9637 20.7541C27.8277 21.0783 28.3824 21.2428 28.6256 21.2428C28.8075 21.2428 29.4237 21.0505 30.4684 20.6671C31.4564 20.3116 32.2902 20.1644 32.9732 20.2224C34.8241 20.3718 36.2147 21.1014 37.1395 22.416C35.4841 23.419 34.6653 24.8238 34.6816 26.626C34.6965 28.0297 35.2057 29.1979 36.2066 30.1254C36.6601 30.5558 37.1667 30.8885 37.7302 31.1248C37.608 31.4793 37.479 31.8188 37.3418 32.1447ZM33.0968 15.4401C33.0968 16.5404 32.6948 17.5677 31.8936 18.5185C30.9267 19.6489 29.7572 20.3021 28.489 20.199C28.4729 20.067 28.4635 19.9281 28.4635 19.7821C28.4635 18.7259 28.9233 17.5955 29.7399 16.6713C30.1475 16.2033 30.666 15.8142 31.2948 15.5038C31.9221 15.1981 32.5156 15.029 33.0737 15C33.09 15.1471 33.0968 15.2942 33.0968 15.4401V15.4401Z" fill="white"/>
    </g>
    <defs>
    <filter id="filter0_dii_861_13027" x="0.5" y="0" width="56" height="56" filterUnits="userSpaceOnUse" color-interpolation-filters="sRGB">
    <feFlood flood-opacity="0" result="BackgroundImageFix"/>
    <feColorMatrix in="SourceAlpha" type="matrix" values="0 0 0 0 0 0 0 0 0 0 0 0 0 0 0 0 0 0 127 0" result="hardAlpha"/>
    <feOffset dy="1"/>
    <feGaussianBlur stdDeviation="1"/>
    <feColorMatrix type="matrix" values="0 0 0 0 0.0392157 0 0 0 0 0.0496732 0 0 0 0 0.0705882 0 0 0 0.05 0"/>
    <feBlend mode="normal" in2="BackgroundImageFix" result="effect1_dropShadow_861_13027"/>
    <feBlend mode="normal" in="SourceGraphic" in2="effect1_dropShadow_861_13027" result="shape"/>
    <feColorMatrix in="SourceAlpha" type="matrix" values="0 0 0 0 0 0 0 0 0 0 0 0 0 0 0 0 0 0 127 0" result="hardAlpha"/>
    <feOffset dy="-2"/>
    <feComposite in2="hardAlpha" operator="arithmetic" k2="-1" k3="1"/>
    <feColorMatrix type="matrix" values="0 0 0 0 0.0392157 0 0 0 0 0.0496732 0 0 0 0 0.0705882 0 0 0 0.05 0"/>
    <feBlend mode="normal" in2="shape" result="effect2_innerShadow_861_13027"/>
    <feColorMatrix in="SourceAlpha" type="matrix" values="0 0 0 0 0 0 0 0 0 0 0 0 0 0 0 0 0 0 127 0" result="hardAlpha"/>
    <feMorphology radius="1" operator="erode" in="SourceAlpha" result="effect3_innerShadow_861_13027"/>
    <feOffset/>
    <feComposite in2="hardAlpha" operator="arithmetic" k2="-1" k3="1"/>
    <feColorMatrix type="matrix" values="0 0 0 0 0.0392157 0 0 0 0 0.0496732 0 0 0 0 0.0705882 0 0 0 0.18 0"/>
    <feBlend mode="normal" in2="effect2_innerShadow_861_13027" result="effect3_innerShadow_861_13027"/>
    </filter>
    </defs>
    </svg>
    