<svg width="57" height="56" viewBox="0 0 57 56" fill="none" xmlns="http://www.w3.org/2000/svg">
    <g filter="url(#filter0_dii_861_13031)">
    <path d="M2.5 9C2.5 4.58172 6.08172 1 10.5 1H46.5C50.9183 1 54.5 4.58172 54.5 9V45C54.5 49.4183 50.9183 53 46.5 53H10.5C6.08172 53 2.5 49.4183 2.5 45V9Z" fill="#0C0E12"/>
    <g clip-path="url(#clip0_861_13031)">
    <path d="M40.5 27C40.5 20.3726 35.1274 15 28.5 15C21.8726 15 16.5 20.3726 16.5 27C16.5 32.9895 20.8882 37.954 26.625 38.8542V30.4688H23.5781V27H26.625V24.3563C26.625 21.3488 28.4166 19.6875 31.1576 19.6875C32.4701 19.6875 33.8438 19.9219 33.8438 19.9219V22.875H32.3306C30.84 22.875 30.375 23.8001 30.375 24.75V27H33.7031L33.1711 30.4688H30.375V38.8542C36.1118 37.954 40.5 32.9895 40.5 27Z" fill="#1877F2"/>
    <path d="M33.1711 30.4688L33.7031 27H30.375V24.75C30.375 23.801 30.84 22.875 32.3306 22.875H33.8438V19.9219C33.8438 19.9219 32.4705 19.6875 31.1576 19.6875C28.4166 19.6875 26.625 21.3488 26.625 24.3563V27H23.5781V30.4688H26.625V38.8542C27.8674 39.0486 29.1326 39.0486 30.375 38.8542V30.4688H33.1711Z" fill="white"/>
    </g>
    </g>
    <defs>
    <filter id="filter0_dii_861_13031" x="0.5" y="0" width="56" height="56" filterUnits="userSpaceOnUse" color-interpolation-filters="sRGB">
    <feFlood flood-opacity="0" result="BackgroundImageFix"/>
    <feColorMatrix in="SourceAlpha" type="matrix" values="0 0 0 0 0 0 0 0 0 0 0 0 0 0 0 0 0 0 127 0" result="hardAlpha"/>
    <feOffset dy="1"/>
    <feGaussianBlur stdDeviation="1"/>
    <feColorMatrix type="matrix" values="0 0 0 0 0.0392157 0 0 0 0 0.0496732 0 0 0 0 0.0705882 0 0 0 0.05 0"/>
    <feBlend mode="normal" in2="BackgroundImageFix" result="effect1_dropShadow_861_13031"/>
    <feBlend mode="normal" in="SourceGraphic" in2="effect1_dropShadow_861_13031" result="shape"/>
    <feColorMatrix in="SourceAlpha" type="matrix" values="0 0 0 0 0 0 0 0 0 0 0 0 0 0 0 0 0 0 127 0" result="hardAlpha"/>
    <feOffset dy="-2"/>
    <feComposite in2="hardAlpha" operator="arithmetic" k2="-1" k3="1"/>
    <feColorMatrix type="matrix" values="0 0 0 0 0.0392157 0 0 0 0 0.0496732 0 0 0 0 0.0705882 0 0 0 0.05 0"/>
    <feBlend mode="normal" in2="shape" result="effect2_innerShadow_861_13031"/>
    <feColorMatrix in="SourceAlpha" type="matrix" values="0 0 0 0 0 0 0 0 0 0 0 0 0 0 0 0 0 0 127 0" result="hardAlpha"/>
    <feMorphology radius="1" operator="erode" in="SourceAlpha" result="effect3_innerShadow_861_13031"/>
    <feOffset/>
    <feComposite in2="hardAlpha" operator="arithmetic" k2="-1" k3="1"/>
    <feColorMatrix type="matrix" values="0 0 0 0 0.0392157 0 0 0 0 0.0496732 0 0 0 0 0.0705882 0 0 0 0.18 0"/>
    <feBlend mode="normal" in2="effect2_innerShadow_861_13031" result="effect3_innerShadow_861_13031"/>
    </filter>
    <clipPath id="clip0_861_13031">
    <rect width="24" height="24" fill="white" transform="translate(16.5 15)"/>
    </clipPath>
    </defs>
    </svg>
    