<svg width="57" height="56" viewBox="0 0 57 56" fill="none" xmlns="http://www.w3.org/2000/svg">
    <g filter="url(#filter0_dii_861_13033)">
    <path d="M2.5 9C2.5 4.58172 6.08172 1 10.5 1H46.5C50.9183 1 54.5 4.58172 54.5 9V45C54.5 49.4183 50.9183 53 46.5 53H10.5C6.08172 53 2.5 49.4183 2.5 45V9Z" fill="#0C0E12"/>
    <g clip-path="url(#clip0_861_13033)">
    <path d="M40.2663 27.2763C40.2663 26.4605 40.2001 25.6404 40.059 24.8379H28.7402V29.4589H35.222C34.953 30.9492 34.0888 32.2676 32.8233 33.1054V36.1037H36.6903C38.9611 34.0137 40.2663 30.9272 40.2663 27.2763Z" fill="#4285F4"/>
    <path d="M28.7391 39.0008C31.9756 39.0008 34.705 37.9382 36.6936 36.1039L32.8266 33.1055C31.7507 33.8375 30.3618 34.252 28.7435 34.252C25.6129 34.252 22.9585 32.1399 22.0061 29.3003H18.0156V32.3912C20.0527 36.4434 24.2019 39.0008 28.7391 39.0008Z" fill="#34A853"/>
    <path d="M22.0028 29.3002C21.5001 27.8099 21.5001 26.196 22.0028 24.7057V21.6147H18.0167C16.3147 25.0055 16.3147 29.0004 18.0167 32.3912L22.0028 29.3002Z" fill="#FBBC04"/>
    <path d="M28.7391 19.7497C30.4499 19.7232 32.1034 20.367 33.3425 21.5487L36.7685 18.1226C34.5991 16.0855 31.7198 14.9655 28.7391 15.0008C24.2019 15.0008 20.0527 17.5582 18.0156 21.6148L22.0017 24.7058C22.9497 21.8617 25.6085 19.7497 28.7391 19.7497Z" fill="#EA4335"/>
    </g>
    </g>
    <defs>
    <filter id="filter0_dii_861_13033" x="0.5" y="0" width="56" height="56" filterUnits="userSpaceOnUse" color-interpolation-filters="sRGB">
    <feFlood flood-opacity="0" result="BackgroundImageFix"/>
    <feColorMatrix in="SourceAlpha" type="matrix" values="0 0 0 0 0 0 0 0 0 0 0 0 0 0 0 0 0 0 127 0" result="hardAlpha"/>
    <feOffset dy="1"/>
    <feGaussianBlur stdDeviation="1"/>
    <feColorMatrix type="matrix" values="0 0 0 0 0.0392157 0 0 0 0 0.0496732 0 0 0 0 0.0705882 0 0 0 0.05 0"/>
    <feBlend mode="normal" in2="BackgroundImageFix" result="effect1_dropShadow_861_13033"/>
    <feBlend mode="normal" in="SourceGraphic" in2="effect1_dropShadow_861_13033" result="shape"/>
    <feColorMatrix in="SourceAlpha" type="matrix" values="0 0 0 0 0 0 0 0 0 0 0 0 0 0 0 0 0 0 127 0" result="hardAlpha"/>
    <feOffset dy="-2"/>
    <feComposite in2="hardAlpha" operator="arithmetic" k2="-1" k3="1"/>
    <feColorMatrix type="matrix" values="0 0 0 0 0.0392157 0 0 0 0 0.0496732 0 0 0 0 0.0705882 0 0 0 0.05 0"/>
    <feBlend mode="normal" in2="shape" result="effect2_innerShadow_861_13033"/>
    <feColorMatrix in="SourceAlpha" type="matrix" values="0 0 0 0 0 0 0 0 0 0 0 0 0 0 0 0 0 0 127 0" result="hardAlpha"/>
    <feMorphology radius="1" operator="erode" in="SourceAlpha" result="effect3_innerShadow_861_13033"/>
    <feOffset/>
    <feComposite in2="hardAlpha" operator="arithmetic" k2="-1" k3="1"/>
    <feColorMatrix type="matrix" values="0 0 0 0 0.0392157 0 0 0 0 0.0496732 0 0 0 0 0.0705882 0 0 0 0.18 0"/>
    <feBlend mode="normal" in2="effect2_innerShadow_861_13033" result="effect3_innerShadow_861_13033"/>
    </filter>
    <clipPath id="clip0_861_13033">
    <rect width="24" height="24" fill="white" transform="translate(16.5 15)"/>
    </clipPath>
    </defs>
    </svg>
    