<svg width="16" height="16" viewBox="0 0 16 16" fill="none" xmlns="http://www.w3.org/2000/svg">
    <path d="M1.33398 4.6665L6.77726 8.4768C7.21804 8.78535 7.43844 8.93962 7.67816 8.99938C7.88991 9.05216 8.11139 9.05216 8.32314 8.99938C8.56287 8.93962 8.78326 8.78535 9.22404 8.4768L14.6673 4.6665M4.53398 13.3332H11.4673C12.5874 13.3332 13.1475 13.3332 13.5753 13.1152C13.9516 12.9234 14.2576 12.6175 14.4493 12.2412C14.6673 11.8133 14.6673 11.2533 14.6673 10.1332V5.8665C14.6673 4.7464 14.6673 4.18635 14.4493 3.75852C14.2576 3.3822 13.9516 3.07624 13.5753 2.88449C13.1475 2.6665 12.5874 2.6665 11.4673 2.6665H4.53398C3.41388 2.6665 2.85383 2.6665 2.426 2.88449C2.04968 3.07624 1.74372 3.3822 1.55197 3.75852C1.33398 4.18635 1.33398 4.7464 1.33398 5.8665V10.1332C1.33398 11.2533 1.33398 11.8133 1.55197 12.2412C1.74372 12.6175 2.04968 12.9234 2.426 13.1152C2.85383 13.3332 3.41388 13.3332 4.53398 13.3332Z" stroke="#94979C" stroke-width="1.33333" stroke-linecap="round" stroke-linejoin="round"/>
</svg>
    