<svg width="57" height="56" viewBox="0 0 57 56" fill="none" xmlns="http://www.w3.org/2000/svg">
    <g filter="url(#filter0_dii_861_13035)">
    <path d="M2.5 9C2.5 4.58172 6.08172 1 10.5 1H46.5C50.9183 1 54.5 4.58172 54.5 9V45C54.5 49.4183 50.9183 53 46.5 53H10.5C6.08172 53 2.5 49.4183 2.5 45V9Z" fill="#0C0E12"/>
    <g clip-path="url(#clip0_861_13035)">
    <path d="M17 15.5H40V38.5H17V15.5Z" fill="#F3F3F3"/>
    <path d="M18 16.5H28V26.5H18V16.5Z" fill="#F35325"/>
    <path d="M29 16.5H39V26.5H29V16.5Z" fill="#81BC06"/>
    <path d="M18 27.5H28V37.5H18V27.5Z" fill="#05A6F0"/>
    <path d="M29 27.5H39V37.5H29V27.5Z" fill="#FFBA08"/>
    </g>
    </g>
    <defs>
    <filter id="filter0_dii_861_13035" x="0.5" y="0" width="56" height="56" filterUnits="userSpaceOnUse" color-interpolation-filters="sRGB">
    <feFlood flood-opacity="0" result="BackgroundImageFix"/>
    <feColorMatrix in="SourceAlpha" type="matrix" values="0 0 0 0 0 0 0 0 0 0 0 0 0 0 0 0 0 0 127 0" result="hardAlpha"/>
    <feOffset dy="1"/>
    <feGaussianBlur stdDeviation="1"/>
    <feColorMatrix type="matrix" values="0 0 0 0 0.0392157 0 0 0 0 0.0496732 0 0 0 0 0.0705882 0 0 0 0.05 0"/>
    <feBlend mode="normal" in2="BackgroundImageFix" result="effect1_dropShadow_861_13035"/>
    <feBlend mode="normal" in="SourceGraphic" in2="effect1_dropShadow_861_13035" result="shape"/>
    <feColorMatrix in="SourceAlpha" type="matrix" values="0 0 0 0 0 0 0 0 0 0 0 0 0 0 0 0 0 0 127 0" result="hardAlpha"/>
    <feOffset dy="-2"/>
    <feComposite in2="hardAlpha" operator="arithmetic" k2="-1" k3="1"/>
    <feColorMatrix type="matrix" values="0 0 0 0 0.0392157 0 0 0 0 0.0496732 0 0 0 0 0.0705882 0 0 0 0.05 0"/>
    <feBlend mode="normal" in2="shape" result="effect2_innerShadow_861_13035"/>
    <feColorMatrix in="SourceAlpha" type="matrix" values="0 0 0 0 0 0 0 0 0 0 0 0 0 0 0 0 0 0 127 0" result="hardAlpha"/>
    <feMorphology radius="1" operator="erode" in="SourceAlpha" result="effect3_innerShadow_861_13035"/>
    <feOffset/>
    <feComposite in2="hardAlpha" operator="arithmetic" k2="-1" k3="1"/>
    <feColorMatrix type="matrix" values="0 0 0 0 0.0392157 0 0 0 0 0.0496732 0 0 0 0 0.0705882 0 0 0 0.18 0"/>
    <feBlend mode="normal" in2="effect2_innerShadow_861_13035" result="effect3_innerShadow_861_13035"/>
    </filter>
    <clipPath id="clip0_861_13035">
    <rect width="23" height="23" fill="white" transform="translate(17 15.5)"/>
    </clipPath>
    </defs>
    </svg>
    