<svg width="20" height="21" viewBox="0 0 20 21" fill="none" xmlns="http://www.w3.org/2000/svg">
<path d="M10 1.95898C12.6719 1.95898 12.9883 1.9707 14.0391 2.01758C15.0156 2.06055 15.543 2.22461 15.8945 2.36133C16.3594 2.54102 16.6953 2.75977 17.043 3.10742C17.3945 3.45898 17.6094 3.79102 17.7891 4.25586C17.9258 4.60742 18.0898 5.13867 18.1328 6.11133C18.1797 7.16601 18.1914 7.48242 18.1914 10.1504C18.1914 12.8223 18.1797 13.1387 18.1328 14.1895C18.0898 15.166 17.9258 15.6934 17.7891 16.0449C17.6094 16.5098 17.3906 16.8457 17.043 17.1934C16.6914 17.5449 16.3594 17.7598 15.8945 17.9395C15.543 18.0762 15.0117 18.2402 14.0391 18.2832C12.9844 18.3301 12.668 18.3418 10 18.3418C7.32812 18.3418 7.01172 18.3301 5.96094 18.2832C4.98438 18.2402 4.45703 18.0762 4.10547 17.9395C3.64062 17.7598 3.30469 17.541 2.95703 17.1934C2.60547 16.8418 2.39062 16.5098 2.21094 16.0449C2.07422 15.6934 1.91016 15.1621 1.86719 14.1895C1.82031 13.1348 1.80859 12.8184 1.80859 10.1504C1.80859 7.47852 1.82031 7.16211 1.86719 6.11133C1.91016 5.13477 2.07422 4.60742 2.21094 4.25586C2.39062 3.79102 2.60937 3.45508 2.95703 3.10742C3.30859 2.75586 3.64062 2.54102 4.10547 2.36133C4.45703 2.22461 4.98828 2.06055 5.96094 2.01758C7.01172 1.9707 7.32812 1.95898 10 1.95898ZM10 0.158203C7.28516 0.158203 6.94531 0.169922 5.87891 0.216797C4.81641 0.263672 4.08594 0.435547 3.45312 0.681641C2.79297 0.939453 2.23438 1.2793 1.67969 1.83789C1.12109 2.39258 0.78125 2.95117 0.523437 3.60742C0.277344 4.24414 0.105469 4.9707 0.0585938 6.0332C0.0117188 7.10351 0 7.44336 0 10.1582C0 12.873 0.0117188 13.2129 0.0585938 14.2793C0.105469 15.3418 0.277344 16.0723 0.523437 16.7051C0.78125 17.3652 1.12109 17.9238 1.67969 18.4785C2.23438 19.0332 2.79297 19.377 3.44922 19.6309C4.08594 19.877 4.8125 20.0488 5.875 20.0957C6.94141 20.1426 7.28125 20.1543 9.99609 20.1543C12.7109 20.1543 13.0508 20.1426 14.1172 20.0957C15.1797 20.0488 15.9102 19.877 16.543 19.6309C17.1992 19.377 17.7578 19.0332 18.3125 18.4785C18.8672 17.9238 19.2109 17.3652 19.4648 16.709C19.7109 16.0723 19.8828 15.3457 19.9297 14.2832C19.9766 13.2168 19.9883 12.877 19.9883 10.1621C19.9883 7.44727 19.9766 7.10742 19.9297 6.04102C19.8828 4.97852 19.7109 4.24805 19.4648 3.61523C19.2187 2.95117 18.8789 2.39258 18.3203 1.83789C17.7656 1.2832 17.207 0.939453 16.5508 0.685547C15.9141 0.439453 15.1875 0.267578 14.125 0.220703C13.0547 0.169922 12.7148 0.158203 10 0.158203Z" fill="#CECFD2"/>
<path d="M10 5.02148C7.16406 5.02148 4.86328 7.32227 4.86328 10.1582C4.86328 12.9941 7.16406 15.2949 10 15.2949C12.8359 15.2949 15.1367 12.9941 15.1367 10.1582C15.1367 7.32227 12.8359 5.02148 10 5.02148ZM10 13.4902C8.16016 13.4902 6.66797 11.998 6.66797 10.1582C6.66797 8.31836 8.16016 6.82617 10 6.82617C11.8398 6.82617 13.332 8.31836 13.332 10.1582C13.332 11.998 11.8398 13.4902 10 13.4902Z" fill="#CECFD2"/>
<path d="M16.5391 4.81836C16.5391 5.48242 16 6.01758 15.3398 6.01758C14.6758 6.01758 14.1406 5.47852 14.1406 4.81836C14.1406 4.1543 14.6797 3.61914 15.3398 3.61914C16 3.61914 16.5391 4.1582 16.5391 4.81836Z" fill="#CECFD2"/>
</svg>
