<svg width="20" height="21" viewBox="0 0 20 21" fill="none" xmlns="http://www.w3.org/2000/svg">
<path d="M18.5195 0.158203H1.47656C0.660156 0.158203 0 0.802734 0 1.59961V18.7129C0 19.5098 0.660156 20.1582 1.47656 20.1582H18.5195C19.3359 20.1582 20 19.5098 20 18.7168V1.59961C20 0.802734 19.3359 0.158203 18.5195 0.158203ZM5.93359 17.2012H2.96484V7.6543H5.93359V17.2012ZM4.44922 6.35352C3.49609 6.35352 2.72656 5.58398 2.72656 4.63477C2.72656 3.68555 3.49609 2.91602 4.44922 2.91602C5.39844 2.91602 6.16797 3.68555 6.16797 4.63477C6.16797 5.58008 5.39844 6.35352 4.44922 6.35352ZM17.043 17.2012H14.0781V12.5605C14.0781 11.4551 14.0586 10.0293 12.5352 10.0293C10.9922 10.0293 10.7578 11.2363 10.7578 12.4824V17.2012H7.79688V7.6543H10.6406V8.95898H10.6797C11.0742 8.20898 12.043 7.41602 13.4844 7.41602C16.4883 7.41602 17.043 9.39258 17.043 11.9629V17.2012Z" fill="#CECFD2"/>
</svg>
