<svg width="20" height="21" viewBox="0 0 20 21" fill="none" xmlns="http://www.w3.org/2000/svg">
<path d="M19.8008 6.1582C19.8008 6.1582 19.6055 4.7793 19.0039 4.17383C18.2422 3.37695 17.3906 3.37305 17 3.32617C14.2031 3.12305 10.0039 3.12305 10.0039 3.12305H9.99609C9.99609 3.12305 5.79688 3.12305 3 3.32617C2.60938 3.37305 1.75781 3.37695 0.996094 4.17383C0.394531 4.7793 0.203125 6.1582 0.203125 6.1582C0.203125 6.1582 0 7.7793 0 9.39648V10.9121C0 12.5293 0.199219 14.1504 0.199219 14.1504C0.199219 14.1504 0.394531 15.5293 0.992187 16.1348C1.75391 16.9316 2.75391 16.9043 3.19922 16.9902C4.80078 17.1426 10 17.1895 10 17.1895C10 17.1895 14.2031 17.1816 17 16.9824C17.3906 16.9355 18.2422 16.9316 19.0039 16.1348C19.6055 15.5293 19.8008 14.1504 19.8008 14.1504C19.8008 14.1504 20 12.5332 20 10.9121V9.39648C20 7.7793 19.8008 6.1582 19.8008 6.1582ZM7.93359 12.752V7.13086L13.3359 9.95117L7.93359 12.752Z" fill="#CECFD2"/>
</svg>
