<svg width="58" height="37" viewBox="0 0 58 37" fill="none" xmlns="http://www.w3.org/2000/svg">
<path d="M14.7195 36.4C10.0529 36.4 6.45286 34.8333 3.91953 31.7C1.3862 28.5667 0.119531 24.1667 0.119531 18.5C0.119531 12.8333 1.4862 8.43333 4.21953 5.3C6.95286 2.16666 10.7195 0.599997 15.5195 0.599997C19.1195 0.599997 22.1529 1.66666 24.6195 3.8C27.1529 5.86666 29.1529 9.23333 30.6195 13.9H31.0195C31.8862 9.5 33.4195 6.2 35.6195 4C37.8195 1.73333 40.3529 0.599997 43.2195 0.599997C47.8862 0.599997 51.4862 2.16666 54.0195 5.3C56.6195 8.43333 57.9195 12.8333 57.9195 18.5C57.9195 24.1667 56.5529 28.5667 53.8195 31.7C51.0862 34.8333 47.3195 36.4 42.5195 36.4C38.9195 36.4 35.8529 35.3667 33.3195 33.3C30.8529 31.1667 28.8862 27.7667 27.4195 23.1H27.0195C26.1529 27.5 24.5862 30.8333 22.3195 33.1C20.1195 35.3 17.5862 36.4 14.7195 36.4ZM15.6195 30.2C17.8862 30.2 19.8862 29.1333 21.6195 27C23.4195 24.8667 24.8529 21.9667 25.9195 18.3C24.8529 14.7 23.4195 11.9 21.6195 9.9C19.8862 7.83333 17.8862 6.8 15.6195 6.8C13.2195 6.8 11.2862 7.56666 9.81953 9.1C8.41953 10.6333 7.71953 12.8667 7.71953 15.8V21.2C7.71953 24.1333 8.41953 26.3667 9.81953 27.9C11.2862 29.4333 13.2195 30.2 15.6195 30.2ZM42.4195 30.2C44.8195 30.2 46.7195 29.4333 48.1195 27.9C49.5862 26.3667 50.3195 24.1333 50.3195 21.2V15.8C50.3195 12.8667 49.5862 10.6333 48.1195 9.1C46.7195 7.56666 44.8195 6.8 42.4195 6.8C40.1529 6.8 38.1195 7.86666 36.3195 10C34.5862 12.1333 33.1862 15.0333 32.1195 18.7C33.1862 22.3 34.5862 25.1333 36.3195 27.2C38.1195 29.2 40.1529 30.2 42.4195 30.2Z" fill="#FAFAFA"/>
</svg>
