<svg width="19" height="18" viewBox="0 0 19 18" fill="none" xmlns="http://www.w3.org/2000/svg">
<g clip-path="url(#clip0_3096_7168)">
<path d="M4.99219 3.04886V14.8273C4.99215 14.9583 5.02706 15.0869 5.09332 15.1999C5.15958 15.3129 5.25479 15.4062 5.36912 15.4701C5.48345 15.534 5.61276 15.5663 5.74372 15.5635C5.87467 15.5608 6.00252 15.5232 6.11409 15.4545L15.6841 9.5653C15.7913 9.49943 15.8798 9.4072 15.9412 9.2974C16.0026 9.1876 16.0348 9.0639 16.0348 8.93809C16.0348 8.81229 16.0026 8.68858 15.9412 8.57878C15.8798 8.46898 15.7913 8.37675 15.6841 8.31089L6.11409 2.42166C6.00252 2.35302 5.87467 2.3154 5.74372 2.31266C5.61276 2.30993 5.48345 2.34218 5.36912 2.4061C5.25479 2.47001 5.15958 2.56328 5.09332 2.67627C5.02706 2.78926 4.99215 2.91788 4.99219 3.04886Z" fill="#F7F7F7"/>
</g>
<defs>
<clipPath id="clip0_3096_7168">
<rect width="17.6677" height="17.6677" fill="white" transform="translate(0.574219 0.103516)"/>
</clipPath>
</defs>
</svg>
