<svg width="19" height="18" viewBox="0 0 19 18" fill="none" xmlns="http://www.w3.org/2000/svg">
<g clip-path="url(#clip0_3096_7162)">
<path d="M12.8822 2.56059C14.0013 3.2067 14.9306 4.13601 15.5767 5.25512C16.2228 6.37422 16.5629 7.64368 16.5629 8.93591C16.5629 10.2281 16.2228 11.4976 15.5766 12.6167C14.9305 13.7358 14.0012 14.6651 12.8821 15.3112C11.763 15.9573 10.4935 16.2974 9.20127 16.2974C7.90904 16.2974 6.63958 15.9572 5.52049 15.3111C4.4014 14.6649 3.47211 13.7356 2.82602 12.6165C2.17993 11.4974 1.83981 10.2279 1.83984 8.93568L1.84352 8.69716C1.88475 7.42582 2.2547 6.18685 2.91731 5.10105C3.57991 4.01524 4.51256 3.11966 5.62433 2.50161C6.7361 1.88355 7.98904 1.56413 9.26101 1.57446C10.533 1.5848 11.7806 1.92455 12.8822 2.56059ZM12.8822 8.19952C12.6869 8.19952 12.4997 8.27708 12.3616 8.41514C12.2236 8.55319 12.146 8.74044 12.146 8.93568C12.146 9.71664 11.8358 10.4656 11.2835 11.0178C10.7313 11.5701 9.98234 11.8803 9.20138 11.8803C9.00614 11.8803 8.8189 11.9579 8.68084 12.0959C8.54279 12.234 8.46523 12.4212 8.46523 12.6164C8.46523 12.8117 8.54279 12.9989 8.68084 13.137C8.8189 13.275 9.00614 13.3526 9.20138 13.3526C10.3728 13.3526 11.4963 12.8872 12.3246 12.0589C13.153 11.2306 13.6183 10.1071 13.6183 8.93568C13.6183 8.74044 13.5407 8.55319 13.4027 8.41514C13.2646 8.27708 13.0774 8.19952 12.8822 8.19952ZM9.20138 7.46337C8.82994 7.46325 8.47217 7.60354 8.19981 7.85611C7.92745 8.10867 7.76061 8.45486 7.73276 8.82525L7.72907 8.93568C7.72907 9.22687 7.81542 9.51153 7.9772 9.75365C8.13898 9.99577 8.36893 10.1845 8.63795 10.2959C8.90698 10.4073 9.20302 10.4365 9.48862 10.3797C9.77421 10.3229 10.0366 10.1827 10.2425 9.97676C10.4484 9.77085 10.5886 9.50851 10.6454 9.22291C10.7022 8.93731 10.6731 8.64128 10.5616 8.37225C10.4502 8.10322 10.2615 7.87328 10.0194 7.7115C9.77723 7.54972 9.49258 7.46337 9.20138 7.46337ZM9.20138 4.51875C8.02994 4.51875 6.90648 4.98411 6.07815 5.81244C5.24981 6.64078 4.78446 7.76424 4.78446 8.93568C4.78446 9.13092 4.86202 9.31816 5.00007 9.45622C5.13813 9.59427 5.32537 9.67183 5.52061 9.67183C5.71585 9.67183 5.9031 9.59427 6.04115 9.45622C6.17921 9.31816 6.25677 9.13092 6.25677 8.93568C6.25677 8.15472 6.567 7.40574 7.11922 6.85352C7.67145 6.3013 8.42042 5.99106 9.20138 5.99106C9.39662 5.99106 9.58387 5.9135 9.72192 5.77545C9.85998 5.63739 9.93754 5.45015 9.93754 5.25491C9.93754 5.05967 9.85998 4.87243 9.72192 4.73437C9.58387 4.59631 9.39662 4.51875 9.20138 4.51875Z" fill="#F7F7F7"/>
</g>
<defs>
<clipPath id="clip0_3096_7162">
<rect width="17.6677" height="17.6677" fill="white" transform="translate(0.367188 0.103516)"/>
</clipPath>
</defs>
</svg>
