<svg width="32" height="32" viewBox="0 0 32 32" fill="none" xmlns="http://www.w3.org/2000/svg">
    <path d="M8 12.75C8 11.7554 8.39509 10.8016 9.09835 10.0983C9.80161 9.39509 10.7554 9 11.75 9H20.25C21.2446 9 22.1984 9.39509 22.9017 10.0983C23.6049 10.8016 24 11.7554 24 12.75V17.75C24 18.7446 23.6049 19.6984 22.9017 20.4017C22.1984 21.1049 21.2446 21.5 20.25 21.5H17.81L18.828 22.518C18.9017 22.5867 18.9608 22.6695 19.0018 22.7615C19.0428 22.8535 19.0648 22.9528 19.0666 23.0535C19.0684 23.1542 19.0498 23.2542 19.0121 23.3476C18.9744 23.441 18.9183 23.5258 18.847 23.597C18.7758 23.6683 18.691 23.7244 18.5976 23.7621C18.5042 23.7998 18.4042 23.8184 18.3035 23.8166C18.2028 23.8148 18.1035 23.7928 18.0115 23.7518C17.9195 23.7108 17.8367 23.6517 17.768 23.578L14.939 20.75L17.768 17.922C17.8367 17.8483 17.9195 17.7892 18.0115 17.7482C18.1035 17.7072 18.2028 17.6852 18.3035 17.6834C18.4042 17.6816 18.5042 17.7002 18.5976 17.7379C18.691 17.7756 18.7758 17.8317 18.847 17.903C18.9183 17.9742 18.9744 18.059 19.0121 18.1524C19.0498 18.2458 19.0684 18.3458 19.0666 18.4465C19.0648 18.5472 19.0428 18.6465 19.0018 18.7385C18.9608 18.8305 18.9017 18.9133 18.828 18.982L17.811 20H20.25C20.8467 20 21.419 19.7629 21.841 19.341C22.2629 18.919 22.5 18.3467 22.5 17.75V12.75C22.5 12.1533 22.2629 11.581 21.841 11.159C21.419 10.7371 20.8467 10.5 20.25 10.5H11.75C11.1533 10.5 10.581 10.7371 10.159 11.159C9.73705 11.581 9.5 12.1533 9.5 12.75V17.75C9.5 18.3467 9.73705 18.919 10.159 19.341C10.581 19.7629 11.1533 20 11.75 20H13V21.5H11.75C10.7554 21.5 9.80161 21.1049 9.09835 20.4017C8.39509 19.6984 8 18.7446 8 17.75V12.75Z" fill="#B3B3B3"/>
    </svg>
    