<svg width="32" height="32" viewBox="0 0 32 32" fill="none" xmlns="http://www.w3.org/2000/svg">
    <path d="M20.7 9C20.5143 9 20.3363 9.07375 20.205 9.20503C20.0738 9.3363 20 9.51435 20 9.7V14.85L10.05 9.107C9.94368 9.04561 9.82308 9.01327 9.7003 9.01322C9.57753 9.01316 9.4569 9.0454 9.35053 9.1067C9.24415 9.16799 9.15576 9.25618 9.09424 9.36243C9.03271 9.46867 9.00021 9.58923 9 9.712V22.287C8.99986 22.4099 9.03211 22.5308 9.09349 22.6373C9.15487 22.7438 9.24322 22.8323 9.34966 22.8938C9.4561 22.9553 9.57686 22.9877 9.6998 22.9878C9.82275 22.9878 9.94353 22.9555 10.05 22.894L20 17.149V22.3C20 22.4857 20.0738 22.6637 20.205 22.795C20.3363 22.9262 20.5143 23 20.7 23H22.3C22.4857 23 22.6637 22.9262 22.795 22.795C22.9262 22.6637 23 22.4857 23 22.3V9.7C23 9.51435 22.9262 9.3363 22.795 9.20503C22.6637 9.07375 22.4857 9 22.3 9H20.7Z" fill="#B3B3B3"/>
    </svg>
    