<svg width="36" height="36" viewBox="0 0 36 36" fill="none" xmlns="http://www.w3.org/2000/svg">
    <path d="M0 18C0 8.05888 8.05888 0 18 0C27.9411 0 36 8.05888 36 18C36 27.9411 27.9411 36 18 36C8.05888 36 0 27.9411 0 18Z" fill="#CECFD2"/>
    <g clip-path="url(#clip0_1175_4770)">
    <path d="M13.1777 11.9384C13.1776 11.8199 13.2087 11.7034 13.2679 11.6007C13.3271 11.498 13.4123 11.4126 13.5149 11.3533C13.6175 11.294 13.734 11.2627 13.8525 11.2627C13.9711 11.2627 14.0876 11.2939 14.1902 11.3531L24.6913 17.4166C24.7938 17.4758 24.8789 17.561 24.9381 17.6636C24.9973 17.7662 25.0284 17.8825 25.0284 18.0009C25.0284 18.1193 24.9973 18.2357 24.9381 18.3382C24.8789 18.4408 24.7938 18.526 24.6913 18.5853L14.1902 24.6487C14.0876 24.7079 13.9713 24.7391 13.8528 24.7391C13.7343 24.7391 13.6179 24.708 13.5153 24.6488C13.4127 24.5895 13.3275 24.5044 13.2682 24.4018C13.209 24.2992 13.1778 24.1828 13.1777 24.0643V11.9384Z" fill="#0C0E12"/>
    </g>
    <defs>
    <clipPath id="clip0_1175_4770">
    <rect width="15.4286" height="15.4286" fill="white" transform="translate(10.2852 10.2861)"/>
    </clipPath>
    </defs>
    </svg>
    