<svg width="32" height="32" viewBox="0 0 32 32" fill="none" xmlns="http://www.w3.org/2000/svg">
    <path d="M11.3 9C11.4857 9 11.6637 9.07375 11.795 9.20503C11.9263 9.3363 12 9.51435 12 9.7V14.85L21.95 9.106C22.0564 9.04457 22.1771 9.01223 22.2999 9.01222C22.4228 9.01221 22.5435 9.04453 22.6499 9.10595C22.7563 9.16736 22.8447 9.25569 22.9061 9.36208C22.9676 9.46846 23 9.58914 23 9.712V22.287C23.0001 22.4099 22.9679 22.5308 22.9065 22.6373C22.8451 22.7438 22.7568 22.8323 22.6503 22.8938C22.5439 22.9553 22.4231 22.9877 22.3002 22.9878C22.1773 22.9878 22.0565 22.9555 21.95 22.894L12 17.149V22.3C12 22.4857 11.9263 22.6637 11.795 22.795C11.6637 22.9262 11.4857 23 11.3 23H9.7C9.51435 23 9.3363 22.9262 9.20503 22.795C9.07375 22.6637 9 22.4857 9 22.3V9.7C9 9.51435 9.07375 9.3363 9.20503 9.20503C9.3363 9.07375 9.51435 9 9.7 9H11.3Z" fill="#B3B3B3"/>
    </svg>
    