<svg width="32" height="32" viewBox="0 0 32 32" fill="none" xmlns="http://www.w3.org/2000/svg">
    <g clip-path="url(#clip0_1175_4716)">
    <path d="M21.151 8.9223C21.0823 8.84862 20.9995 8.78951 20.9075 8.74852C20.8155 8.70753 20.7162 8.68549 20.6155 8.68371C20.5148 8.68193 20.4148 8.70046 20.3214 8.73818C20.228 8.7759 20.1432 8.83204 20.072 8.90326C20.0007 8.97448 19.9446 9.05932 19.9069 9.1527C19.8692 9.24609 19.8506 9.34612 19.8524 9.44682C19.8542 9.54753 19.8762 9.64684 19.9172 9.73884C19.9582 9.83084 20.0173 9.91364 20.091 9.9823L21.109 11.0003H19.16C18.6123 11.0003 18.0713 11.1203 17.5749 11.3518C17.0786 11.5833 16.639 11.9207 16.287 12.3403L10.114 19.6963C9.90279 19.9481 9.63899 20.1506 9.34115 20.2895C9.0433 20.4284 8.71864 20.5003 8.39 20.5003H8V22.0003H8.391C8.93868 22.0003 9.47971 21.8803 9.97606 21.6488C10.4724 21.4173 10.912 21.0799 11.264 20.6603L17.437 13.3043C17.6482 13.0525 17.912 12.8501 18.2099 12.7111C18.5077 12.5722 18.8324 12.5003 19.161 12.5003H21.108L20.091 13.5183C19.9585 13.6605 19.8864 13.8485 19.8898 14.0428C19.8933 14.2371 19.972 14.4225 20.1094 14.5599C20.2468 14.6973 20.4322 14.776 20.6265 14.7795C20.8208 14.7829 21.0088 14.7108 21.151 14.5783L23.98 11.7503L21.15 8.9223H21.151ZM8.391 11.5003H8V10.0003H8.391C9.5 10.0003 10.551 10.4903 11.264 11.3403L12.89 13.2773L11.911 14.4443L10.115 12.3043C9.90368 12.0524 9.63972 11.8498 9.34169 11.7109C9.04366 11.572 8.71881 11.5001 8.39 11.5003H8.391Z" fill="#B3B3B3"/>
    <path d="M15.5 18.7233L16.48 17.5563L17.437 18.6963C17.6482 18.9481 17.912 19.1506 18.2099 19.2895C18.5077 19.4284 18.8324 19.5003 19.161 19.5003H21.108L20.091 18.4823C20.0173 18.4136 19.9582 18.3308 19.9172 18.2388C19.8762 18.1468 19.8542 18.0475 19.8524 17.9468C19.8506 17.8461 19.8692 17.7461 19.9069 17.6527C19.9446 17.5593 20.0007 17.4745 20.072 17.4033C20.1432 17.332 20.228 17.2759 20.3214 17.2382C20.4148 17.2005 20.5148 17.1819 20.6155 17.1837C20.7162 17.1855 20.8155 17.2075 20.9075 17.2485C20.9995 17.2895 21.0823 17.3486 21.151 17.4223L23.98 20.2503L21.151 23.0783C21.0823 23.152 20.9995 23.2111 20.9075 23.2521C20.8155 23.2931 20.7162 23.3151 20.6155 23.3169C20.5148 23.3187 20.4148 23.3001 20.3214 23.2624C20.228 23.2247 20.1432 23.1686 20.072 23.0973C20.0007 23.0261 19.9446 22.9413 19.9069 22.8479C19.8692 22.7545 19.8506 22.6545 19.8524 22.5538C19.8542 22.4531 19.8762 22.3538 19.9172 22.2618C19.9582 22.1698 20.0173 22.087 20.091 22.0183L21.109 21.0003H19.16C18.6123 21.0003 18.0713 20.8803 17.5749 20.6488C17.0786 20.4173 16.639 20.0799 16.287 19.6603L15.5 18.7233Z" fill="#B3B3B3"/>
    </g>
    <defs>
    <clipPath id="clip0_1175_4716">
    <rect width="16" height="16" fill="white" transform="translate(8 8)"/>
    </clipPath>
    </defs>
    </svg>
    