<svg width="32" height="32" viewBox="0 0 32 32" fill="none" xmlns="http://www.w3.org/2000/svg">
    <g clip-path="url(#clip0_1175_4756)">
    <path d="M17.7412 8.85046C17.8553 8.91632 17.95 9.01108 18.0158 9.12518C18.0817 9.23929 18.1163 9.36872 18.1162 9.50046V22.5005C18.1163 22.6322 18.0817 22.7615 18.0159 22.8756C17.9501 22.9897 17.8554 23.0845 17.7414 23.1503C17.6274 23.2162 17.498 23.2509 17.3663 23.2509C17.2346 23.251 17.1053 23.2163 16.9912 23.1505L10.0662 19.1505C9.2324 18.667 8.62422 17.8728 8.37492 16.9418C8.12563 16.0107 8.25554 15.0189 8.7362 14.1835C9.05504 13.6305 9.51372 13.1711 10.0662 12.8515L16.9912 8.85146C17.1052 8.78563 17.2345 8.75098 17.3662 8.75098C17.4979 8.75098 17.6272 8.78463 17.7412 8.85046ZM10.8172 14.1505C10.4932 14.3385 10.2242 14.6084 10.0373 14.9331C9.8503 15.2577 9.7519 15.6258 9.7519 16.0005C9.7519 16.3751 9.8503 16.7432 10.0373 17.0679C10.2242 17.3925 10.4932 17.6624 10.8172 17.8505L16.6172 21.2005V10.8005L10.8172 14.1505ZM19.5002 18.4405V13.5605C19.9468 13.7926 20.3211 14.1429 20.5824 14.5732C20.8436 15.0034 20.9818 15.4971 20.9818 16.0005C20.9818 16.5038 20.8436 16.9975 20.5824 17.4278C20.3211 17.858 19.9468 18.2083 19.5002 18.4405Z" fill="#94979C"/>
    <path d="M19.5 21.6137C20.7765 21.329 21.9179 20.6176 22.7359 19.5971C23.5539 18.5765 23.9996 17.3077 23.9996 15.9997C23.9996 14.6918 23.5539 13.423 22.7359 12.4024C21.9179 11.3818 20.7765 10.6705 19.5 10.3857V11.9357C20.3687 12.2034 21.1288 12.7424 21.6688 13.4738C22.2087 14.2051 22.5 15.0902 22.5 15.9992C22.5 16.9083 22.2087 17.7934 21.6688 18.5247C21.1288 19.256 20.3687 19.7951 19.5 20.0627V21.6127V21.6137Z" fill="#94979C"/>
    </g>
    <defs>
    <clipPath id="clip0_1175_4756">
    <rect width="16" height="16" fill="white" transform="translate(8 8)"/>
    </clipPath>
    </defs>
    </svg>
    