<svg width="407" height="32" viewBox="0 0 407 32" fill="none" xmlns="http://www.w3.org/2000/svg">
    <g opacity="0.3">
    <rect x="0.046875" y="12.7998" width="2.69474" height="6.4" rx="1.34737" fill="#FAFAFA"/>
    <rect x="4.42578" y="5.72656" width="2.69474" height="20.5474" rx="1.34737" fill="#FAFAFA"/>
    <rect x="8.80469" width="2.69474" height="32" rx="1.34737" fill="#FAFAFA"/>
    <rect x="13.1836" y="5.72656" width="2.69474" height="20.5474" rx="1.34737" fill="#FAFAFA"/>
    <rect x="17.5625" y="13.4736" width="2.69474" height="5.05263" rx="1.34737" fill="#FAFAFA"/>
    <rect x="21.9414" y="5.72656" width="2.69474" height="20.5474" rx="1.34737" fill="#FAFAFA"/>
    <rect x="26.3203" width="2.69474" height="32" rx="1.34737" fill="#FAFAFA"/>
    <rect x="30.6992" y="5.72656" width="2.69474" height="20.5474" rx="1.34737" fill="#FAFAFA"/>
    <rect x="35.0781" y="12.7998" width="2.69474" height="6.4" rx="1.34737" fill="#FAFAFA"/>
    <rect x="39.457" y="9.09473" width="2.69474" height="13.8105" rx="1.34737" fill="#FAFAFA"/>
    <rect x="43.8359" y="2.69434" width="2.69474" height="26.6105" rx="1.34737" fill="#FAFAFA"/>
    <rect x="48.2148" y="14.1475" width="2.69474" height="3.70526" rx="1.34737" fill="#FAFAFA"/>
    <rect x="50.9102" y="12.7998" width="2.69474" height="6.4" rx="1.34737" fill="#FAFAFA"/>
    <rect x="55.2891" y="5.72656" width="2.69474" height="20.5474" rx="1.34737" fill="#FAFAFA"/>
    <rect x="59.668" width="2.69474" height="32" rx="1.34737" fill="#FAFAFA"/>
    <rect x="64.0469" y="5.72656" width="2.69474" height="20.5474" rx="1.34737" fill="#FAFAFA"/>
    <rect x="68.4258" y="13.4736" width="2.69474" height="5.05263" rx="1.34737" fill="#FAFAFA"/>
    <rect x="72.8047" y="5.72656" width="2.69474" height="20.5474" rx="1.34737" fill="#FAFAFA"/>
    <rect x="77.1836" width="2.69474" height="32" rx="1.34737" fill="#FAFAFA"/>
    <rect x="81.5625" y="5.72656" width="2.69474" height="20.5474" rx="1.34737" fill="#FAFAFA"/>
    <rect x="85.9414" y="12.7998" width="2.69474" height="6.4" rx="1.34737" fill="#FAFAFA"/>
    <rect x="90.3203" y="9.09473" width="2.69474" height="13.8105" rx="1.34737" fill="#FAFAFA"/>
    <rect x="94.6992" y="2.69434" width="2.69474" height="26.6105" rx="1.34737" fill="#FAFAFA"/>
    <rect x="99.0781" y="14.1475" width="2.69474" height="3.70526" rx="1.34737" fill="#FAFAFA"/>
    <rect x="101.773" y="12.7998" width="2.69474" height="6.4" rx="1.34737" fill="#FAFAFA"/>
    <rect x="106.152" y="5.72656" width="2.69474" height="20.5474" rx="1.34737" fill="#FAFAFA"/>
    <rect x="110.531" width="2.69474" height="32" rx="1.34737" fill="#FAFAFA"/>
    <rect x="114.91" y="5.72656" width="2.69474" height="20.5474" rx="1.34737" fill="#FAFAFA"/>
    <rect x="119.289" y="13.4736" width="2.69474" height="5.05263" rx="1.34737" fill="#FAFAFA"/>
    <rect x="123.668" y="5.72656" width="2.69474" height="20.5474" rx="1.34737" fill="#FAFAFA"/>
    <rect x="128.047" width="2.69474" height="32" rx="1.34737" fill="#FAFAFA"/>
    <rect x="132.426" y="5.72656" width="2.69474" height="20.5474" rx="1.34737" fill="#FAFAFA"/>
    <rect x="136.805" y="12.7998" width="2.69474" height="6.4" rx="1.34737" fill="#FAFAFA"/>
    <rect x="141.184" y="9.09473" width="2.69474" height="13.8105" rx="1.34737" fill="#FAFAFA"/>
    <rect x="145.562" y="2.69434" width="2.69474" height="26.6105" rx="1.34737" fill="#FAFAFA"/>
    <rect x="149.941" y="14.1475" width="2.69474" height="3.70526" rx="1.34737" fill="#FAFAFA"/>
    <rect x="152.637" y="12.7998" width="2.69474" height="6.4" rx="1.34737" fill="#FAFAFA"/>
    <rect x="157.016" y="5.72656" width="2.69474" height="20.5474" rx="1.34737" fill="#FAFAFA"/>
    <rect x="161.395" width="2.69474" height="32" rx="1.34737" fill="#FAFAFA"/>
    <rect x="165.773" y="5.72656" width="2.69474" height="20.5474" rx="1.34737" fill="#FAFAFA"/>
    <rect x="170.152" y="13.4736" width="2.69474" height="5.05263" rx="1.34737" fill="#FAFAFA"/>
    <rect x="174.531" y="5.72656" width="2.69474" height="20.5474" rx="1.34737" fill="#FAFAFA"/>
    <rect x="178.91" width="2.69474" height="32" rx="1.34737" fill="#FAFAFA"/>
    <rect x="183.289" y="5.72656" width="2.69474" height="20.5474" rx="1.34737" fill="#FAFAFA"/>
    <rect x="187.668" y="12.7998" width="2.69474" height="6.4" rx="1.34737" fill="#FAFAFA"/>
    <rect x="192.047" y="9.09473" width="2.69474" height="13.8105" rx="1.34737" fill="#FAFAFA"/>
    <rect x="196.426" y="2.69434" width="2.69474" height="26.6105" rx="1.34737" fill="#FAFAFA"/>
    <rect x="200.805" y="14.1475" width="2.69474" height="3.70526" rx="1.34737" fill="#FAFAFA"/>
    <rect x="203.5" y="12.7998" width="2.69474" height="6.4" rx="1.34737" fill="#FAFAFA"/>
    <rect x="207.879" y="5.72656" width="2.69474" height="20.5474" rx="1.34737" fill="#FAFAFA"/>
    <rect x="212.258" width="2.69474" height="32" rx="1.34737" fill="#FAFAFA"/>
    <rect x="216.637" y="5.72656" width="2.69474" height="20.5474" rx="1.34737" fill="#FAFAFA"/>
    <rect x="221.016" y="13.4736" width="2.69474" height="5.05263" rx="1.34737" fill="#FAFAFA"/>
    <rect x="225.395" y="5.72656" width="2.69474" height="20.5474" rx="1.34737" fill="#FAFAFA"/>
    <rect x="229.773" width="2.69474" height="32" rx="1.34737" fill="#FAFAFA"/>
    <rect x="234.152" y="5.72656" width="2.69474" height="20.5474" rx="1.34737" fill="#FAFAFA"/>
    <rect x="238.531" y="12.7998" width="2.69474" height="6.4" rx="1.34737" fill="#FAFAFA"/>
    <rect x="242.91" y="9.09473" width="2.69474" height="13.8105" rx="1.34737" fill="#FAFAFA"/>
    <rect x="247.289" y="2.69434" width="2.69474" height="26.6105" rx="1.34737" fill="#FAFAFA"/>
    <rect x="251.668" y="14.1475" width="2.69474" height="3.70526" rx="1.34737" fill="#FAFAFA"/>
    <rect x="254.363" y="12.7998" width="2.69474" height="6.4" rx="1.34737" fill="#FAFAFA"/>
    <rect x="258.742" y="5.72656" width="2.69474" height="20.5474" rx="1.34737" fill="#FAFAFA"/>
    <rect x="263.121" width="2.69474" height="32" rx="1.34737" fill="#FAFAFA"/>
    <rect x="267.5" y="5.72656" width="2.69474" height="20.5474" rx="1.34737" fill="#FAFAFA"/>
    <rect x="271.879" y="13.4736" width="2.69474" height="5.05263" rx="1.34737" fill="#FAFAFA"/>
    <rect x="276.258" y="5.72656" width="2.69474" height="20.5474" rx="1.34737" fill="#FAFAFA"/>
    <rect x="280.637" width="2.69474" height="32" rx="1.34737" fill="#FAFAFA"/>
    <rect x="285.016" y="5.72656" width="2.69474" height="20.5474" rx="1.34737" fill="#FAFAFA"/>
    <rect x="289.395" y="12.7998" width="2.69474" height="6.4" rx="1.34737" fill="#FAFAFA"/>
    <rect x="293.773" y="9.09473" width="2.69474" height="13.8105" rx="1.34737" fill="#FAFAFA"/>
    <rect x="298.152" y="2.69434" width="2.69474" height="26.6105" rx="1.34737" fill="#FAFAFA"/>
    <rect x="302.531" y="14.1475" width="2.69474" height="3.70526" rx="1.34737" fill="#FAFAFA"/>
    <rect x="305.227" y="12.7998" width="2.69474" height="6.4" rx="1.34737" fill="#FAFAFA"/>
    <rect x="309.605" y="5.72656" width="2.69474" height="20.5474" rx="1.34737" fill="#FAFAFA"/>
    <rect x="313.984" width="2.69474" height="32" rx="1.34737" fill="#FAFAFA"/>
    <rect x="318.363" y="5.72656" width="2.69474" height="20.5474" rx="1.34737" fill="#FAFAFA"/>
    <rect x="322.742" y="13.4736" width="2.69474" height="5.05263" rx="1.34737" fill="#FAFAFA"/>
    <rect x="327.121" y="5.72656" width="2.69474" height="20.5474" rx="1.34737" fill="#FAFAFA"/>
    <rect x="331.5" width="2.69474" height="32" rx="1.34737" fill="#FAFAFA"/>
    <rect x="335.879" y="5.72656" width="2.69474" height="20.5474" rx="1.34737" fill="#FAFAFA"/>
    <rect x="340.258" y="12.7998" width="2.69474" height="6.4" rx="1.34737" fill="#FAFAFA"/>
    <rect x="344.637" y="9.09473" width="2.69474" height="13.8105" rx="1.34737" fill="#FAFAFA"/>
    <rect x="349.016" y="2.69434" width="2.69474" height="26.6105" rx="1.34737" fill="#FAFAFA"/>
    <rect x="353.395" y="14.1475" width="2.69474" height="3.70526" rx="1.34737" fill="#FAFAFA"/>
    <rect x="356.09" y="12.7998" width="2.69474" height="6.4" rx="1.34737" fill="#FAFAFA"/>
    <rect x="360.469" y="5.72656" width="2.69474" height="20.5474" rx="1.34737" fill="#FAFAFA"/>
    <rect x="364.848" width="2.69474" height="32" rx="1.34737" fill="#FAFAFA"/>
    <rect x="369.227" y="5.72656" width="2.69474" height="20.5474" rx="1.34737" fill="#FAFAFA"/>
    <rect x="373.605" y="13.4736" width="2.69474" height="5.05263" rx="1.34737" fill="#FAFAFA"/>
    <rect x="377.984" y="5.72656" width="2.69474" height="20.5474" rx="1.34737" fill="#FAFAFA"/>
    <rect x="382.363" width="2.69474" height="32" rx="1.34737" fill="#FAFAFA"/>
    <rect x="386.742" y="5.72656" width="2.69474" height="20.5474" rx="1.34737" fill="#FAFAFA"/>
    <rect x="391.121" y="12.7998" width="2.69474" height="6.4" rx="1.34737" fill="#FAFAFA"/>
    <rect x="395.5" y="9.09473" width="2.69474" height="13.8105" rx="1.34737" fill="#FAFAFA"/>
    <rect x="399.879" y="2.69434" width="2.69474" height="26.6105" rx="1.34737" fill="#FAFAFA"/>
    <rect x="404.258" y="14.1475" width="2.69474" height="3.70526" rx="1.34737" fill="#FAFAFA"/>
    </g>
    </svg>
    