<svg width="18" height="18" viewBox="0 0 18 18" fill="none" xmlns="http://www.w3.org/2000/svg">
    <g clip-path="url(#clip0_257_20678)">
    <path d="M13.658 3.61816C13.8163 4.00099 14.1201 4.30529 14.5027 4.46415L15.8442 5.01984C16.2271 5.17843 16.5313 5.48261 16.6899 5.86546C16.8484 6.24832 16.8484 6.67849 16.6899 7.06135L16.1346 8.40194C15.9759 8.78496 15.9757 9.21557 16.1351 9.59841L16.6894 10.9386C16.768 11.1282 16.8085 11.3315 16.8085 11.5368C16.8086 11.742 16.7681 11.9453 16.6896 12.1349C16.611 12.3246 16.4959 12.4969 16.3507 12.642C16.2055 12.7872 16.0332 12.9023 15.8435 12.9808L14.5029 13.536C14.1201 13.6943 13.8158 13.9982 13.6569 14.3808L13.1012 15.7223C12.9426 16.1052 12.6385 16.4094 12.2556 16.5679C11.8728 16.7265 11.4426 16.7265 11.0597 16.5679L9.71914 16.0126C9.33627 15.8545 8.90626 15.8548 8.52363 16.0135L7.18208 16.5684C6.79943 16.7267 6.36964 16.7265 5.98709 16.5681C5.60455 16.4096 5.30054 16.1058 5.14184 15.7233L4.58599 14.3814C4.4277 13.9986 4.12386 13.6943 3.74127 13.5354L2.39972 12.9797C2.01703 12.8212 1.71294 12.5172 1.5543 12.1346C1.39566 11.7519 1.39544 11.322 1.5537 10.9392L2.10899 9.59859C2.26719 9.21572 2.26686 8.7857 2.10809 8.40307L1.5536 7.06056C1.47499 6.87094 1.43451 6.66768 1.43447 6.46241C1.43444 6.25713 1.47485 6.05386 1.55341 5.86421C1.63197 5.67456 1.74712 5.50225 1.89229 5.35712C2.03747 5.212 2.20982 5.0969 2.39949 5.0184L3.74008 4.46311C4.12257 4.30496 4.42669 4.0015 4.58567 3.61936L5.14136 2.2778C5.29994 1.89495 5.60412 1.59077 5.98698 1.43219C6.36984 1.2736 6.80001 1.2736 7.18287 1.43219L8.52345 1.98748C8.90632 2.14567 9.33634 2.14535 9.71897 1.98658L11.0611 1.43305C11.4439 1.27455 11.874 1.27458 12.2567 1.43314C12.6395 1.59169 12.9437 1.89578 13.1023 2.27854L13.6581 3.62049L13.658 3.61816Z" fill="#2E90FA"/>
    <path fill-rule="evenodd" clip-rule="evenodd" d="M12.3849 6.81572C12.4962 6.64084 12.5335 6.4289 12.4886 6.22651C12.4437 6.02413 12.3202 5.84789 12.1453 5.73655C11.9704 5.62522 11.7585 5.58791 11.5561 5.63284C11.3537 5.67777 11.1775 5.80126 11.0662 5.97613L8.00678 10.7834L6.60678 9.03343C6.47735 8.87153 6.28891 8.76769 6.08291 8.74473C5.87692 8.72178 5.67024 8.7816 5.50835 8.91103C5.34645 9.04046 5.24261 9.2289 5.21965 9.4349C5.1967 9.6409 5.25652 9.84757 5.38595 10.0095L7.46928 12.6136C7.54692 12.7108 7.64665 12.788 7.76015 12.8389C7.87366 12.8898 7.99767 12.9128 8.12187 12.9061C8.24607 12.8993 8.36687 12.8631 8.47423 12.8002C8.58158 12.7374 8.67238 12.6499 8.73907 12.5449L12.3849 6.81572Z" fill="white"/>
    </g>
    <defs>
    <clipPath id="clip0_257_20678">
    <rect width="16.6667" height="16.6667" fill="white" transform="translate(0.787109 0.666992)"/>
    </clipPath>
    </defs>
    </svg>
    